{
  "accessors": [
    {
      "bufferView": 2,
      "componentType": 5126,
      "count": 9416,
      "max": [
        8.8212594985961914,
        -3.4805896282196045,
        15.951485633850098
      ],
      "min": [
        -8.8212604522705078,
        -15.055752754211426,
        -2.7498040199279785
      ],
      "type": "VEC3"
    },
    {
      "bufferView": 2,
      "byteOffset": 112992,
      "componentType": 5126,
      "count": 9416,
      "max": [
        1,
        1,
        0.99756580591201782
      ],
      "min": [
        -1,
        -0.99999368190765381,
        -0.99955445528030396
      ],
      "type": "VEC3"
    },
    {
      "bufferView": 1,
      "componentType": 5126,
      "count": 9416,
      "max": [
        20.899528503417969,
        96.601463317871094
      ],
      "min": [
        -20.245906829833984,
        -18.066913604736328
      ],
      "type": "VEC2"
    },
    {
      "bufferView": 0,
      "componentType": 5125,
      "count": 42414,
      "max": [
        9415
      ],
      "min": [
        0
      ],
      "type": "SCALAR"
    },
    {
      "bufferView": 2,
      "byteOffset": 225984,
      "componentType": 5126,
      "count": 1548,
      "max": [
        1.7646600008010864,
        -14.61038875579834,
        -2.0997610092163086
      ],
      "min": [
        -1.7646600008010864,
        -17.363334655761719,
        -4.9525322914123535
      ],
      "type": "VEC3"
    },
    {
      "bufferView": 2,
      "byteOffset": 244560,
      "componentType": 5126,
      "count": 1548,
      "max": [
        1,
        0.99955445528030396,
        0.99955445528030396
      ],
      "min": [
        -1,
        -0.99955445528030396,
        -0.99955445528030396
      ],
      "type": "VEC3"
    },
    {
      "bufferView": 1,
      "byteOffset": 75328,
      "componentType": 5126,
      "count": 1548,
      "max": [
        1.7646600008010864,
        4.9913053512573242
      ],
      "min": [
        -1.7646600008010864,
        -4.9913053512573242
      ],
      "type": "VEC2"
    },
    {
      "bufferView": 0,
      "byteOffset": 169656,
      "componentType": 5125,
      "count": 6354,
      "max": [
        1547
      ],
      "min": [
        0
      ],
      "type": "SCALAR"
    },
    {
      "bufferView": 2,
      "byteOffset": 263136,
      "componentType": 5126,
      "count": 2157,
      "max": [
        1.6000000238418579,
        -4.0758452415466309,
        -4.9049787521362305
      ],
      "min": [
        -2.1000001430511475,
        -8.1010818481445312,
        -6.3522334098815918
      ],
      "type": "VEC3"
    },
    {
      "bufferView": 2,
      "byteOffset": 289020,
      "componentType": 5126,
      "count": 2157,
      "max": [
        1,
        0.99753612279891968,
        0.99756407737731934
      ],
      "min": [
        -1,
        -0.99754542112350464,
        -0.99756407737731934
      ],
      "type": "VEC3"
    },
    {
      "bufferView": 1,
      "byteOffset": 87712,
      "componentType": 5126,
      "count": 2157,
      "max": [
        1.8556296825408936,
        49.912731170654297
      ],
      "min": [
        -2.0891923904418945,
        -4.5255680084228516
      ],
      "type": "VEC2"
    },
    {
      "bufferView": 0,
      "byteOffset": 195072,
      "componentType": 5125,
      "count": 7716,
      "max": [
        2156
      ],
      "min": [
        0
      ],
      "type": "SCALAR"
    }
  ],
  "asset": {
    "extras": {
      "author": "braulioandresagurtocaro (https://sketchfab.com/braulioandresagurtocaro)",
      "license": "CC-BY-4.0 (http://creativecommons.org/licenses/by/4.0/)",
      "source": "https://sketchfab.com/3d-models/mascarilla-t-7-54fe513a4a3c44eb8f7bc74d63b5df1b",
      "title": "mascarilla T-7"
    },
    "generator": "Sketchfab-9.21.0",
    "version": "2.0"
  },
  "bufferViews": [
    {
      "buffer": 0,
      "byteLength": 225936,
      "byteOffset": 0,
      "name": "floatBufferViews",
      "target": 34963
    },
    {
      "buffer": 0,
      "byteLength": 104968,
      "byteOffset": 225936,
      "byteStride": 8,
      "name": "floatBufferViews",
      "target": 34962
    },
    {
      "buffer": 0,
      "byteLength": 314904,
      "byteOffset": 330904,
      "byteStride": 12,
      "name": "floatBufferViews",
      "target": 34962
    }
  ],
  "buffers": [
    {
      "byteLength": 645808,
      "uri": "scene.bin"
    }
  ],
  "materials": [
    {
      "doubleSided": true,
      "emissiveFactor": [
        0,
        0,
        0
      ],
      "name": "Polymide_Kapton",
      "pbrMetallicRoughness": {
        "baseColorFactor": [
          0.85882400000000003,
          0.611765,
          0.035294100000000002,
          1
        ],
        "metallicFactor": 0,
        "roughnessFactor": 0.95770514946237739
      }
    },
    {
      "doubleSided": true,
      "emissiveFactor": [
        0,
        0,
        0
      ],
      "name": "Steel_-_Satin",
      "pbrMetallicRoughness": {
        "baseColorFactor": [
          0.62745099999999998,
          0.62745099999999998,
          0.62745099999999998,
          1
        ],
        "metallicFactor": 0,
        "roughnessFactor": 0.95770514946237739
      }
    }
  ],
  "meshes": [
    {
      "name": "Body22_Polymide (Kapton)_0",
      "primitives": [
        {
          "attributes": {
            "NORMAL": 1,
            "POSITION": 0,
            "TEXCOORD_0": 2
          },
          "indices": 3,
          "material": 0,
          "mode": 4
        }
      ]
    },
    {
      "name": "Body30_Steel - Satin_0",
      "primitives": [
        {
          "attributes": {
            "NORMAL": 5,
            "POSITION": 4,
            "TEXCOORD_0": 6
          },
          "indices": 7,
          "material": 1,
          "mode": 4
        }
      ]
    },
    {
      "name": "Body32_Steel - Satin_0",
      "primitives": [
        {
          "attributes": {
            "NORMAL": 9,
            "POSITION": 8,
            "TEXCOORD_0": 10
          },
          "indices": 11,
          "material": 1,
          "mode": 4
        }
      ]
    }
  ],
  "nodes": [
    {
      "children": [
        1
      ],
      "name": "RootNode (gltf orientation matrix)",
      "rotation": [
        -0.70710678118654746,
        -0,
        -0,
        0.70710678118654757
      ]
    },
    {
      "children": [
        2
      ],
      "matrix": [
        1,
        0,
        0,
        0,
        0,
        -0.085069634020328522,
        -0.99637502431869507,
        0,
        0,
        0.99637502431869507,
        -0.085069634020328522,
        0,
        0,
        51.762737274169922,
        -160.9078369140625,
        1
      ],
      "name": "RootNode (model correction matrix)"
    },
    {
      "children": [
        3
      ],
      "matrix": [
        1,
        0,
        0,
        0,
        0,
        0,
        1,
        0,
        0,
        -1,
        0,
        0,
        0,
        0,
        0,
        1
      ],
      "name": "f6a9ae11af96472d872c9793e8892895.fbx"
    },
    {
      "children": [
        4
      ],
      "name": "RootNode"
    },
    {
      "children": [
        5,
        7,
        9
      ],
      "name": "mascarilla 15 v6"
    },
    {
      "children": [
        6
      ],
      "matrix": [
        10,
        0,
        0,
        0,
        0,
        10,
        0,
        0,
        0,
        0,
        10,
        0,
        0,
        0,
        0,
        1
      ],
      "name": "Body22"
    },
    {
      "mesh": 0,
      "name": "Body22_Polymide (Kapton)_0"
    },
    {
      "children": [
        8
      ],
      "matrix": [
        10,
        0,
        0,
        0,
        0,
        10,
        0,
        0,
        0,
        0,
        10,
        0,
        0,
        0,
        0,
        1
      ],
      "name": "Body30"
    },
    {
      "mesh": 1,
      "name": "Body30_Steel - Satin_0"
    },
    {
      "children": [
        10
      ],
      "matrix": [
        10,
        0,
        0,
        0,
        0,
        10,
        0,
        0,
        0,
        0,
        10,
        0,
        0,
        0,
        0,
        1
      ],
      "name": "Body32"
    },
    {
      "mesh": 2,
      "name": "Body32_Steel - Satin_0"
    }
  ],
  "scene": 0,
  "scenes": [
    {
      "name": "OSG_Scene",
      "nodes": [
        0
      ]
    }
  ]
}

